<svg xmlns="http://www.w3.org/2000/svg" xmlns:xlink="http://www.w3.org/1999/xlink" width="500" zoomAndPan="magnify" viewBox="0 0 375 112.499997" height="150" preserveAspectRatio="xMidYMid meet" version="1.0"><defs><g/><clipPath id="983763a5b7"><path d="M 164.324219 24.632812 L 179.484375 24.632812 L 179.484375 39.449219 L 164.324219 39.449219 Z M 164.324219 24.632812 " clip-rule="nonzero"/></clipPath><clipPath id="a59ce878c1"><path d="M 164.355469 39.449219 L 164.355469 27.355469 L 171.921875 24.632812 L 179.484375 27.355469 L 179.484375 39.449219 Z M 164.355469 39.449219 " clip-rule="nonzero"/></clipPath><clipPath id="fddd16ff1d"><path d="M 149.320312 91.503906 L 164.398438 91.503906 L 164.398438 106.238281 L 149.320312 106.238281 Z M 149.320312 91.503906 " clip-rule="nonzero"/></clipPath><clipPath id="9d34478bc9"><path d="M 164.367188 91.503906 L 164.367188 103.527344 L 156.84375 106.238281 L 149.320312 103.527344 L 149.320312 91.503906 Z M 164.367188 91.503906 " clip-rule="nonzero"/></clipPath></defs><g fill="#ffffff" fill-opacity="1"><g transform="translate(12.006378, 94.730274)"><g><path d="M 33.421875 0.875 C 27.316406 0.875 21.984375 -0.222656 17.421875 -2.421875 C 12.867188 -4.628906 9.359375 -7.734375 6.890625 -11.734375 C 4.429688 -15.742188 3.203125 -20.398438 3.203125 -25.703125 C 3.203125 -32.242188 4.742188 -38.125 7.828125 -43.34375 C 10.921875 -48.5625 15.222656 -52.675781 20.734375 -55.6875 C 26.253906 -58.707031 32.46875 -60.21875 39.375 -60.21875 C 45.695312 -60.21875 51.15625 -58.910156 55.75 -56.296875 C 60.351562 -53.691406 63.789062 -50 66.0625 -45.21875 L 51.515625 -37.9375 C 48.929688 -43.3125 44.515625 -46 38.265625 -46 C 34.890625 -46 31.859375 -45.171875 29.171875 -43.515625 C 26.484375 -41.859375 24.382812 -39.554688 22.875 -36.609375 C 21.375 -33.671875 20.625 -30.328125 20.625 -26.578125 C 20.625 -22.535156 21.835938 -19.316406 24.265625 -16.921875 C 26.691406 -14.535156 30.070312 -13.34375 34.40625 -13.34375 C 40.726562 -13.34375 45.582031 -15.988281 48.96875 -21.28125 L 61.65625 -13.34375 C 58.789062 -8.863281 54.875 -5.375 49.90625 -2.875 C 44.945312 -0.375 39.453125 0.875 33.421875 0.875 Z M 33.421875 0.875 "/></g></g></g><g fill="#ffffff" fill-opacity="1"><g transform="translate(68.810115, 94.730274)"><g><path d="M 74.125 -59.34375 L 62.3125 0 L 46 0 L 47.09375 -5.84375 C 42.164062 -1.363281 36.097656 0.875 28.890625 0.875 C 24.265625 0.875 20 -0.1875 16.09375 -2.3125 C 12.195312 -4.445312 9.09375 -7.515625 6.78125 -11.515625 C 4.46875 -15.523438 3.3125 -20.253906 3.3125 -25.703125 C 3.3125 -32.242188 4.757812 -38.140625 7.65625 -43.390625 C 10.5625 -48.648438 14.515625 -52.769531 19.515625 -55.75 C 24.515625 -58.726562 30.03125 -60.21875 36.0625 -60.21875 C 45.1875 -60.21875 51.625 -57.238281 55.375 -51.28125 L 56.90625 -59.34375 Z M 34.1875 -13.34375 C 37.570312 -13.34375 40.585938 -14.171875 43.234375 -15.828125 C 45.878906 -17.484375 47.9375 -19.78125 49.40625 -22.71875 C 50.882812 -25.664062 51.625 -29.050781 51.625 -32.875 C 51.625 -36.914062 50.425781 -40.113281 48.03125 -42.46875 C 45.644531 -44.820312 42.316406 -46 38.046875 -46 C 34.671875 -46 31.65625 -45.171875 29 -43.515625 C 26.351562 -41.859375 24.296875 -39.554688 22.828125 -36.609375 C 21.359375 -33.671875 20.625 -30.289062 20.625 -26.46875 C 20.625 -22.425781 21.816406 -19.226562 24.203125 -16.875 C 26.597656 -14.519531 29.925781 -13.34375 34.1875 -13.34375 Z M 34.1875 -13.34375 "/></g></g></g><g fill="#ffffff" fill-opacity="1"><g transform="translate(136.53344, 94.730274)"><g><path d="M 23.71875 0.875 C 18.570312 0.875 13.695312 0.304688 9.09375 -0.828125 C 4.5 -1.960938 0.914062 -3.453125 -1.65625 -5.296875 L 4.96875 -17.75 C 7.539062 -16.0625 10.679688 -14.703125 14.390625 -13.671875 C 18.109375 -12.640625 21.84375 -12.125 25.59375 -12.125 C 29.488281 -12.125 32.390625 -12.617188 34.296875 -13.609375 C 36.210938 -14.609375 37.171875 -16.03125 37.171875 -17.875 C 37.171875 -19.34375 36.320312 -20.40625 34.625 -21.0625 C 32.9375 -21.726562 30.21875 -22.425781 26.46875 -23.15625 C 22.207031 -23.96875 18.695312 -24.851562 15.9375 -25.8125 C 13.175781 -26.769531 10.785156 -28.332031 8.765625 -30.5 C 6.742188 -32.664062 5.734375 -35.625 5.734375 -39.375 C 5.734375 -45.914062 8.472656 -51.023438 13.953125 -54.703125 C 19.429688 -58.378906 26.617188 -60.21875 35.515625 -60.21875 C 39.628906 -60.21875 43.632812 -59.773438 47.53125 -58.890625 C 51.4375 -58.015625 54.75 -56.804688 57.46875 -55.265625 L 51.28125 -42.6875 C 46.4375 -45.695312 40.59375 -47.203125 33.75 -47.203125 C 30 -47.203125 27.148438 -46.648438 25.203125 -45.546875 C 23.253906 -44.441406 22.28125 -43.046875 22.28125 -41.359375 C 22.28125 -39.816406 23.125 -38.695312 24.8125 -38 C 26.507812 -37.300781 29.34375 -36.546875 33.3125 -35.734375 C 37.5 -34.921875 40.929688 -34.054688 43.609375 -33.140625 C 46.296875 -32.222656 48.632812 -30.695312 50.625 -28.5625 C 52.613281 -26.4375 53.609375 -23.535156 53.609375 -19.859375 C 53.609375 -13.234375 50.832031 -8.117188 45.28125 -4.515625 C 39.726562 -0.921875 32.539062 0.875 23.71875 0.875 Z M 23.71875 0.875 "/></g></g></g><g fill="#ffffff" fill-opacity="1"><g transform="translate(186.719256, 94.730274)"><g><path d="M 48.421875 -60.21875 C 55.035156 -60.21875 60.289062 -58.453125 64.1875 -54.921875 C 68.082031 -51.398438 70.03125 -46.398438 70.03125 -39.921875 C 70.03125 -37.566406 69.773438 -35.21875 69.265625 -32.875 L 62.65625 0 L 45.4375 0 L 51.84375 -31.765625 C 52.132812 -33.015625 52.28125 -34.375 52.28125 -35.84375 C 52.28125 -38.9375 51.429688 -41.289062 49.734375 -42.90625 C 48.046875 -44.519531 45.515625 -45.328125 42.140625 -45.328125 C 37.722656 -45.328125 34.0625 -44.054688 31.15625 -41.515625 C 28.25 -38.984375 26.285156 -35.179688 25.265625 -30.109375 L 19.296875 0 L 2.09375 0 L 18.421875 -81.84375 L 35.625 -81.84375 L 30.109375 -53.9375 C 35.179688 -58.125 41.285156 -60.21875 48.421875 -60.21875 Z M 48.421875 -60.21875 "/></g></g></g><g fill="#ffffff" fill-opacity="1"><g transform="translate(254.552858, 94.730274)"><g><path d="M 66.515625 -34.078125 C 66.515625 -31.359375 66.179688 -28.34375 65.515625 -25.03125 L 20.078125 -25.03125 C 20.660156 -16.945312 25.769531 -12.90625 35.40625 -12.90625 C 38.414062 -12.90625 41.300781 -13.378906 44.0625 -14.328125 C 46.820312 -15.285156 49.226562 -16.648438 51.28125 -18.421875 L 58.453125 -7.0625 C 55.148438 -4.414062 51.363281 -2.429688 47.09375 -1.109375 C 42.832031 0.210938 38.347656 0.875 33.640625 0.875 C 27.535156 0.875 22.1875 -0.207031 17.59375 -2.375 C 13 -4.539062 9.46875 -7.644531 7 -11.6875 C 4.539062 -15.726562 3.3125 -20.398438 3.3125 -25.703125 C 3.3125 -32.242188 4.800781 -38.140625 7.78125 -43.390625 C 10.757812 -48.648438 14.894531 -52.769531 20.1875 -55.75 C 25.476562 -58.726562 31.503906 -60.21875 38.265625 -60.21875 C 44.003906 -60.21875 48.988281 -59.148438 53.21875 -57.015625 C 57.445312 -54.890625 60.71875 -51.835938 63.03125 -47.859375 C 65.351562 -43.890625 66.515625 -39.296875 66.515625 -34.078125 Z M 37.5 -47.3125 C 33.457031 -47.3125 30.035156 -46.226562 27.234375 -44.0625 C 24.441406 -41.894531 22.457031 -38.898438 21.28125 -35.078125 L 50.734375 -35.078125 C 50.734375 -38.898438 49.535156 -41.894531 47.140625 -44.0625 C 44.753906 -46.226562 41.539062 -47.3125 37.5 -47.3125 Z M 37.5 -47.3125 "/></g></g></g><g fill="#ffffff" fill-opacity="1"><g transform="translate(315.437649, 94.730274)"><g><path d="M 28.78125 -52.28125 C 31.351562 -55.070312 34.457031 -57.09375 38.09375 -58.34375 C 41.738281 -59.59375 46.023438 -60.21875 50.953125 -60.21875 L 47.875 -44.34375 C 45.8125 -44.488281 44.484375 -44.5625 43.890625 -44.5625 C 38.671875 -44.5625 34.5 -43.273438 31.375 -40.703125 C 28.25 -38.128906 26.132812 -34.117188 25.03125 -28.671875 L 19.296875 0 L 2.09375 0 L 13.890625 -59.34375 L 30.21875 -59.34375 Z M 28.78125 -52.28125 "/></g></g></g><g clip-path="url(#983763a5b7)"><g clip-path="url(#a59ce878c1)"><path fill="#ffffff" d="M 179.484375 39.449219 L 164.378906 39.449219 L 164.378906 24.632812 L 179.484375 24.632812 Z M 179.484375 39.449219 " fill-opacity="1" fill-rule="nonzero"/></g></g><g clip-path="url(#fddd16ff1d)"><g clip-path="url(#9d34478bc9)"><path fill="#ffffff" d="M 149.320312 91.503906 L 164.339844 91.503906 L 164.339844 106.238281 L 149.320312 106.238281 Z M 149.320312 91.503906 " fill-opacity="1" fill-rule="nonzero"/></g></g></svg>